<?xml version="1.0" standalone="no"?>
<!DOCTYPE svg PUBLIC "-//W3C//DTD SVG 20010904//EN"
 "http://www.w3.org/TR/2001/REC-SVG-20010904/DTD/svg10.dtd">
<svg version="1.0" xmlns="http://www.w3.org/2000/svg"
 width="700.000000pt" height="700.000000pt" viewBox="0 0 700.000000 700.000000"
 preserveAspectRatio="xMidYMid meet">
<metadata>
Created by potrace 1.11, written by Peter Selinger 2001-2013
</metadata>
<g transform="translate(0.000000,700.000000) scale(0.100000,-0.100000)"
fill="#000000" stroke="none">
<path d="M3128 6775 c-2 -2 -82 -6 -178 -9 -317 -11 -365 -15 -567 -56 -295
-59 -608 -187 -856 -349 l-107 -70 -78 62 c-100 81 -220 140 -347 173 -98 25
-304 25 -400 0 -387 -102 -624 -450 -570 -836 33 -235 173 -451 381 -587 45
-29 86 -53 91 -53 30 -1 33 -17 18 -78 -18 -71 -21 -80 -40 -182 -16 -83 -21
-127 -31 -245 -5 -59 -10 -4462 -5 -4533 1 -10 617 -12 3063 -10 l3061 3 0
2215 c0 2049 -2 2305 -18 2445 -13 109 -52 303 -69 346 -5 11 6 21 41 37 188
85 351 261 431 462 55 140 68 332 32 476 -53 208 -197 382 -395 479 -130 63
-204 79 -360 79 -227 0 -401 -65 -576 -215 l-56 -48 -89 58 c-153 100 -302
178 -473 246 -211 84 -508 154 -721 170 -41 3 -100 8 -130 12 -58 6 -1046 14
-1052 8z"/>
</g>
</svg>
